<?xml version="1.0" encoding="utf-8"?>
<!-- Uploaded to: SVG Repo, www.svgrepo.com, Generator: SVG Repo Mixer Tools -->
<svg width="800px" height="800px" viewBox="0 -36.92 397.635 397.635" xmlns="http://www.w3.org/2000/svg"><defs><style>.a{fill:#ffffff;}.b{fill:#fce0cd;}.c{fill:#211916;}.d{fill:#d7d7d7;}.e{fill:#38302e;}.f{fill:#bdbdbd;}</style></defs><path class="a" d="M315.176,173.123s-4.223-15.673,17.428-21.95c7.449-2.159,13.873-1.529,20.053,3.367a23.487,23.487,0,0,1,8.43,21.689c-.851,5.3-4.392,10.8-9.727,11.384a20.77,20.77,0,0,1,8.117,19.007c-.931,7.166-4.484,12.274-12.7,16.3-14.468,7.088-25.967,0-25.967,0"/><path class="a" d="M196.489,264.24c-2-.568-4.284,2.782-4.919,4.759a22.045,22.045,0,0,0,26.443,28.1c-3.173,4.874-1,11.618,2.861,15.972a25.454,25.454,0,0,0,23.969,7.831c8.61-1.875,14.046-6.445,16.839-15.257s.308-19.149.308-19.149"/><path class="b" d="M78.4,130.639,236.572,230.01l69.3-44.87c-3.961-6.871-11.075-19.211-16.376-28.4.934.191,1.759.326,2.449.4,5.148.512,10.5.609,15.319-1.274s9.006-6.144,9.445-11.3c.081-.949.075-4.366-2.807-6.124-7.488-4.565-14.14-6.805-21.639-11.353-10.212-6.194-20.733-12.671-27.537-22.487L246.665,78.535,244.2,75.4,224.056,49.713c-2.459-3.134-4.993-6.337-8.4-8.409-4.578-2.786-10.158-3.2-15.5-3.664-23.34-2.026-48.595-5.235-71.085-11.8-15.189-5.178-25.54-9.937-35.654-18.374,0,0-34.246-6.916-38.745,20.082-.836,5.013-2.03,10.785-3.145,17.034C46.644,71.991,43.278,108.576,78.4,130.639Z"/><path class="c" d="M262.657,105.805c7.473,10.671,18.946,17.967,30.083,24.341,6.086,3.483,12.633,6.071,18.691,9.607a5.138,5.138,0,0,1,2.563,2.319,8.808,8.808,0,0,1,.272,1.014c.162.771-.007-.4.044.308.018.254.029.508.023.762a9.459,9.459,0,0,1-2.762,5.982c-5.023,5.333-12.866,5.249-19.622,4.593a2.417,2.417,0,0,0-2.4,2.4,2.452,2.452,0,0,0,2.4,2.4c7.021.681,14.767.512,20.641-3.921,4.315-3.255,7.87-9.02,6.1-14.581-1.135-3.576-4.223-5.14-7.328-6.814-3.168-1.709-6.437-3.215-9.67-4.794a153.81,153.81,0,0,1-18.384-10.814c-6.22-4.194-12.175-9.034-16.51-15.225a2.465,2.465,0,0,0-3.284-.861,2.422,2.422,0,0,0-.861,3.284Z"/><path class="a" d="M230,142.654s-12.351,20.324,3.557,48.781,87.375,21.894,87.375,21.894c21.714-4.557,21.024-25.443,19.538-32.523-2.859-13.619-16.211-20.62-23.066-18.69,3.367-6.622,8.422-22.94-5.546-34.535-14.781-12.27-33.344-5.709-35.814,3.261-3.446-7.564-19.065-7.816-28.451-4.257-10.576,4.01-14.619,9.507-17.593,16.069"/><path class="c" d="M91.727,9.168A94.7,94.7,0,0,0,116.5,23.728a133.59,133.59,0,0,0,15.836,5.527c5.592,1.516,11.241,2.816,16.922,3.953,11.744,2.35,23.62,4.015,35.522,5.327,5.827.643,11.664,1.154,17.5,1.691,5.071.467,10.343,1.26,14.316,4.723a48.543,48.543,0,0,1,6.067,6.85l6.411,8.172,13.43,17.121a2.413,2.413,0,0,0,3.394,0,2.46,2.46,0,0,0,0-3.394L234,58.522c-3.674-4.683-7.2-9.553-11.116-14.037a24.311,24.311,0,0,0-14.044-8.2c-5.5-1.067-11.2-1.247-16.767-1.794-11.77-1.154-23.514-2.622-35.159-4.707-11.453-2.05-22.894-4.542-33.815-8.608-10.061-3.746-19.675-8.513-27.972-15.4a2.468,2.468,0,0,0-3.395,0,2.421,2.421,0,0,0,0,3.394Z"/><path class="d" d="M321.66,216.072c6.013-1.294,11.836-4.169,15.743-9.036a27.961,27.961,0,0,0,5.764-13.589,38.19,38.19,0,0,0-.125-11.968,26.952,26.952,0,0,0-9.3-15.954c-4.488-3.71-10.929-6.892-16.888-5.294l2.711,3.525c4.6-9.124,5.823-20.473.666-29.639-6.537-11.62-21.555-18.067-34.379-14.035-5.163,1.623-10.453,5.086-12.034,10.551l4.386-.573c-3.106-6.541-12.05-7.975-18.488-7.951a36.8,36.8,0,0,0-23.174,7.992,29.981,29.981,0,0,0-7.516,9.657c-1.4,2.745,2.736,5.177,4.145,2.423a26.846,26.846,0,0,1,5.31-7.4,28.684,28.684,0,0,1,9.751-5.883,31.962,31.962,0,0,1,19.3-1.029,13.342,13.342,0,0,1,4.106,1.811,6.533,6.533,0,0,1,2.422,2.8c.921,1.938,3.849,1.284,4.386-.574.059-.2.123-.4.19-.6.22-.649-.216.412.084-.212a10.666,10.666,0,0,1,.639-1.144,9.888,9.888,0,0,1,1.761-1.981,16.79,16.79,0,0,1,4.9-2.885,23.536,23.536,0,0,1,15.011-.359A26.387,26.387,0,0,1,315.274,135.2a22.657,22.657,0,0,1,3.485,14.135,30.716,30.716,0,0,1-1.288,6.8c-.314,1.047-.682,2.073-1.08,3.091-.023.059-.3.719-.084.211-.105.246-.214.492-.325.735q-.269.586-.56,1.162a2.43,2.43,0,0,0,2.71,3.525c.214-.057.43-.1.644-.151.464-.113,0-.015.138-.027a12.254,12.254,0,0,1,1.557-.041c.218.01.436.03.654.046.473.036.136.009.033,0,.114.016.228.033.341.054.588.108,1.17.233,1.747.4a19.7,19.7,0,0,1,6.305,3.17,22.705,22.705,0,0,1,8.744,13.812c.056.281.106.564.153.846.027.165.05.331.077.5.064.395-.057-.524,0,.038.086.784.166,1.566.21,2.354a35.882,35.882,0,0,1-.108,5.456c-.024.25-.053.5-.081.749a1.47,1.47,0,0,1-.045.336c-.081.514-.166,1.026-.268,1.536a28.923,28.923,0,0,1-.8,3.1,19.126,19.126,0,0,1-1.011,2.616,22.994,22.994,0,0,1-1.681,2.967,17.232,17.232,0,0,1-2.282,2.756,17.571,17.571,0,0,1-3,2.458,26.4,26.4,0,0,1-9.081,3.618c-3.018.649-1.741,5.277,1.276,4.628Z"/><path class="b" d="M310.253,268.114a43.926,43.926,0,0,1,3.4,7.182c4.074,9.113,8,18.346,10.481,28.013.854,3.323,1.532,6.861.54,10.145s-4.181,6.145-7.572,5.626a13.832,13.832,0,0,1-5.7-2.024c-4.336-3.388-10.742-10.184-17.423-17.958,1.591-.253,2.07,12.307-1.846,15.56-4.653,3.865-11.424-.152-13.8-1.828-1.518-1.07-12.355-13.9-21.19-24.714.171,2.141.258,4.269-1.168,5.778-3.6,3.809-12.114-.726-14-2.376-2.414-2.108-9-7.771-14.637-12.84l-13.1-10.564,103.755-34.8,12.75,20.588a251.849,251.849,0,0,1,11.624,23.308,30.3,30.3,0,0,1,1.5,5.344c.417,2.531-.743,8.281-4.57,10.1-2.607,1.239-7.388-1.221-9.679-2.977C325.545,286.56,316.3,278.3,313.232,274.2"/><path class="b" d="M10.712,140.865c7.558,6.385,16.271,9.3,24.122,15.865,13.422,11.212,41.725,42.986,44.667,46.091,10.829,12.786,25.682,17.926,43.061,27.942,9.746,3.768,26.341,11.233,31.722,13.707,13.513,7.807,26.447,13.217,38.757,18.515,8.319,3,33.885,12.584,48.235,16.614,6.921,1.944,21.346,1.854,23.588,1.734,4.159-.222,8.257-2.136,9.815-5.573.7-1.536,2.083-6.333-1.229-10.4,6.356,1.174,12.932,1.978,18.725,2.951,6.186,1.04,14.547,1.183,18.078-.4,2.652-1.189,7.73-4.687,7.733-7.593.007-6.188-5.729-9.406-9.244-10.468l-43-12.991c2.149.832,3.987,1.547,5.321,2.077,6.423,2.645,18.325,5.291,25.542,7.936,13.952,3.413,27.719,6.675,42.061,6.133a9.5,9.5,0,0,0,5.066-1.187c2.043-1.391,2.735-4.124,2.615-6.593-.222-4.585-5.753-12.023-9.658-14.437a162.069,162.069,0,0,0-27.638-12.034c7.884,2.137,17.3,3.626,21.693-2.642,3.225-4.6,1.013-10.206-2.632-14.478-6-7.031-34.693-22.1-37.5-22.873-11.357-6.651-19.47-11.921-28.216-17.343-13.815-8.564-33.235-20.676-46.038-28.764-9.329-8.344-13.37-13.936-22.4-23.146,18.769-.708,35.771-1.415,54.548-2.121,6.144-.232,12.519-.521,17.976-3.353s9.71-8.988,8.3-14.972C272.63,79.9,260.675,78.093,251.3,77.288A146.818,146.818,0,0,1,195.881,61.1c-8.455-4.432-16.561-9.728-25.667-12.594-35.377-11.134-72.528,16.975-109.535,10-12.225-2.717-23.9-8.14-35.315-13.5,0,0-14.556-6.042-21.306,27.706S-1.382,130.648,10.712,140.865Z"/><path class="c" d="M193.842,111.915q20.238-.762,40.472-1.579c6.635-.259,13.314-.307,19.933-.851,6.081-.5,12.242-1.807,17.029-5.82,4.191-3.513,6.906-9,5.967-14.519a14.475,14.475,0,0,0-7.9-10.109c-4.2-2.2-8.917-3.089-13.577-3.683-5.558-.709-11.125-1.085-16.653-2.06A144.752,144.752,0,0,1,203.2,62.047C191.862,56.768,181.47,49.18,169.335,45.74c-21.935-6.218-44.477,1.674-65.728,6.934-10.8,2.673-21.83,4.906-33.013,4.512-12.319-.435-23.969-5.123-35.082-10.121-2.993-1.346-5.965-2.737-8.936-4.13a2.468,2.468,0,0,0-3.284.861,2.419,2.419,0,0,0,.861,3.283c11.514,5.4,23.349,11.16,35.888,13.738,10.852,2.231,22.2,1.167,32.987-.878,10.894-2.065,21.522-5.272,32.3-7.849,10.317-2.467,20.893-4.4,31.545-3.664a55.214,55.214,0,0,1,15.661,3.419,121.975,121.975,0,0,1,16.039,8,162.8,162.8,0,0,0,34.233,14.6,146.874,146.874,0,0,0,17.943,3.957c5.318.828,10.7,1.084,16.013,1.89,7.15,1.083,18.35,4.369,15.473,13.815-1.5,4.922-6.121,8.008-10.84,9.359-5.9,1.689-12.249,1.5-18.329,1.727q-19.689.755-39.376,1.542-4.922.19-9.844.376c-3.079.116-3.094,4.916,0,4.8Z"/><path class="c" d="M225.637,280.375c4.8,4.316,9.635,8.613,14.567,12.778a21.244,21.244,0,0,0,6.06,3.414,13.528,13.528,0,0,0,8.108.925,6.943,6.943,0,0,0,4.149-2.991,10.049,10.049,0,0,0,1.047-6.081,2.457,2.457,0,0,0-2.4-2.4,2.42,2.42,0,0,0-2.4,2.4,8.741,8.741,0,0,1-.057,2.874,2.18,2.18,0,0,1-2.138,1.678,6.272,6.272,0,0,0-.74,0,8.014,8.014,0,0,1-.862-.057,17.1,17.1,0,0,1-6.918-2.824c-.178-.12-.354-.242-.526-.371.583.439-.04-.06-.15-.156L242.1,288.46q-1.832-1.588-3.661-3.179-4.734-4.118-9.41-8.3c-2.291-2.06-5.7,1.324-3.394,3.394Z"/><path class="c" d="M250.125,283.084c7.06,8.733,14.172,17.437,21.5,25.952,1.862,2.166,3.676,4.677,6.09,6.267,4.7,3.091,11.76,5.306,16.371.824,2.173-2.112,2.867-5.411,3.236-8.3a22.756,22.756,0,0,0-.235-8.195c-.736-3-5.366-1.728-4.629,1.276.047.19.219,1.207.17.812.064.516.1,1.037.115,1.556a26.864,26.864,0,0,1-.112,3.61c-.19,1.951-.583,4.216-1.776,5.7.269-.335-.232.209-.244.218a5.865,5.865,0,0,1-.579.408,4.528,4.528,0,0,1-1.656.6,7.77,7.77,0,0,1-3.353-.318,15.116,15.116,0,0,1-2.969-1.213q-.725-.384-1.42-.818c-.249-.155-.978-.466-1.085-.719.129.307.524.484.152.089-.111-.118-.232-.227-.346-.342-.44-.445-.861-.91-1.28-1.374-1.154-1.278-2.28-2.582-3.4-3.889-3.29-3.836-6.525-7.72-9.746-11.614q-5.74-6.936-11.4-13.937a2.415,2.415,0,0,0-3.394,0,2.457,2.457,0,0,0,0,3.394Z"/><path class="c" d="M273.5,277.437c9.391,12.31,19.164,24.555,30.028,35.608a68.077,68.077,0,0,0,5.875,5.467c2.916,2.339,7.749,3.9,11.379,2.477,4.28-1.681,6.546-5.94,6.768-10.37.245-4.89-1.539-9.969-3.028-14.558-1.753-5.4-3.877-10.666-6.115-15.88q-.844-1.966-1.712-3.924c-.257-.58-.513-1.16-.773-1.738-.371-.824-.2-.446-.122-.26-.105-.249-.2-.5-.3-.752a39.3,39.3,0,0,0-3.17-6.6c-1.654-2.6-5.81-.194-4.145,2.422,2.049,3.219,3.318,6.961,4.848,10.443,1.862,4.237,3.647,8.508,5.235,12.856a100.37,100.37,0,0,1,4.027,13.295c.722,3.367,1.018,7.741-2.14,10.015a4.353,4.353,0,0,1-3.932.534,9.556,9.556,0,0,1-3.736-1.605,71.555,71.555,0,0,1-5.458-5.106c-4.866-4.94-9.427-10.185-13.9-15.482q-7.969-9.441-15.483-19.26a2.479,2.479,0,0,0-3.284-.861,2.415,2.415,0,0,0-.861,3.283Z"/><path class="c" d="M328.663,255.11c2.665,4.805,5.238,9.664,7.658,14.6,1.171,2.386,2.319,4.789,3.354,7.237a29.823,29.823,0,0,1,1.189,3.346c.18.626.344,1.258.484,1.894.073.332.151.668.2,1-.084-.611-.008.028-.01.166a10.116,10.116,0,0,1-1.339,5.22c-1.007,1.689-2.019,2.276-3.75,1.858a13.269,13.269,0,0,1-3.289-1.326c-.477-.262-.946-.542-1.4-.843-.166-.109-.33-.22-.492-.335s-.3-.215-.443-.326q.308.237-.033-.028c-1.591-1.247-3.131-2.561-4.652-3.892-2.075-1.814-4.113-3.675-6.087-5.6-.944-.921-1.876-1.857-2.775-2.822-.376-.4-.747-.811-1.108-1.228q-.205-.237-.407-.478c-.056-.067-.631-.8-.326-.4a2.479,2.479,0,0,0-3.284-.861,2.417,2.417,0,0,0-.861,3.284,77.477,77.477,0,0,0,10.7,10.83c3.755,3.322,7.629,6.977,12.531,8.471a7.818,7.818,0,0,0,7.951-1.533,12.444,12.444,0,0,0,3.5-6.542c1.188-5.49-1.386-10.758-3.643-15.631-2.912-6.289-6.156-12.43-9.517-18.489-1.5-2.7-5.646-.283-4.145,2.423Z"/><path class="d" d="M197.127,261.926c-4.043-.834-6.957,3.413-7.984,6.8a24.657,24.657,0,0,0-.369,12.309,24.311,24.311,0,0,0,15.933,17.773,24.825,24.825,0,0,0,13.944.605l-2.71-3.526c-2.889,4.638-2.043,10.4.476,15a24.832,24.832,0,0,0,11.042,10.087c8.8,4.212,19.974,3.852,27.957-2.084A24.353,24.353,0,0,0,264,306.28c.922-2.955-3.71-4.22-4.629-1.276a19.828,19.828,0,0,1-5.538,9.027,20.764,20.764,0,0,1-9.624,4.553A22.891,22.891,0,0,1,222,310.7c-2.655-3.4-4.37-8.447-1.915-12.389a2.426,2.426,0,0,0-2.71-3.526,19.633,19.633,0,0,1-24.312-21.345,13.559,13.559,0,0,1,1.143-4.534,7.747,7.747,0,0,1,1.118-1.66c.225-.244.465-.39.673-.6.261-.265.231-.008-.146-.086,3.015.622,4.3-4,1.276-4.629Z"/><path class="d" d="M333.242,153.487a17.538,17.538,0,0,1,11.025-.756,20.382,20.382,0,0,1,9.414,6.074c4.534,5.073,6.6,12.818,4.464,19.372-.989,3.032-3.333,6.585-6.785,7.036a2.425,2.425,0,0,0-1.211,4.472,17.954,17.954,0,0,1-4.015,30.922,2.477,2.477,0,0,0-1.676,2.953,2.415,2.415,0,0,0,2.952,1.676,22.739,22.739,0,0,0,5.161-39.695l-1.211,4.472c9.431-1.232,13.256-11.723,12.217-20.129a26.1,26.1,0,0,0-16-21.079,21.558,21.558,0,0,0-15.606.054,2.465,2.465,0,0,0-1.676,2.952,2.419,2.419,0,0,0,2.952,1.676Z"/><path class="c" d="M180.226,194.848c16.126,9.591,32.025,19.565,48.374,28.779a93.926,93.926,0,0,0,10.429,5.356c2.719,1.114,5.453,2.192,8.188,3.264,6.087,2.386,12.192,4.725,18.289,7.086,2.292.888,4.566,1.841,6.879,2.672,3.51,1.261,7.114,2.258,10.7,3.271,3.691,1.043,7.4,2.053,11.037,3.271a129.153,129.153,0,0,0,13.338,3.351c9.526,2.091,19.252,3.678,29.032,3.564,4.338-.051,9.171-.334,11.234-4.83,1.638-3.568,1.1-7.311-.5-10.762a26.921,26.921,0,0,0-11.655-12.458,167.255,167.255,0,0,0-19.23-8.577q-3.306-1.26-6.659-2.392c-2.932-.994-4.19,3.64-1.276,4.628a177.832,177.832,0,0,1,21.392,8.775c1.793.883,3.593,1.78,5.313,2.8a19.337,19.337,0,0,1,5.5,5.469,23.644,23.644,0,0,1,2.6,4.474,7.714,7.714,0,0,1,.732,3.529,4.78,4.78,0,0,1-1.433,3.631c-1.43,1.114-3.856.876-5.544.905-9.289.161-18.48-1.271-27.534-3.232a114.685,114.685,0,0,1-13.254-3.236c-3.452-1.2-6.979-2.172-10.494-3.164-5.933-1.675-11.713-3.522-17.457-5.754-5.708-2.218-11.427-4.408-17.133-6.631q-4.2-1.637-8.389-3.307-1.743-.7-3.479-1.418l-.6-.248c.494.207-.235-.1-.33-.142-1.1-.53-2.166-1.185-3.238-1.779-15.9-8.8-31.338-18.377-46.9-27.74q-2.755-1.656-5.518-3.3c-2.662-1.583-5.079,2.565-2.423,4.145Z"/><path class="c" d="M308.1,252.169a11.383,11.383,0,0,1,2.781,1.206,11.138,11.138,0,0,1,2.846,2.229,7.1,7.1,0,0,1,1.64,2.974,8.342,8.342,0,0,1,.236,1.663c.023-.248-.168.578-.063.318a4.139,4.139,0,0,1-.511.858,12.163,12.163,0,0,1-2.9,2.639q-.859.6-1.771,1.112c-.247.139-.5.274-.75.4-.111.056-.779.339-.425.2-2.656,1-5.723.969-8.522.915a74.257,74.257,0,0,1-10.122-1.058c-3.944-.619-7.9-1.16-11.843-1.793a190.211,190.211,0,0,1-23.394-5.459,171.537,171.537,0,0,1-16.9-5.87c-3.673-1.508-7.8-3.452-11.658-5.218-8.734-4-17.271-8.428-25.862-12.731-10.137-5.076-20.317-10.111-30.238-15.6q-1.341-.743-2.668-1.5c-2.682-1.544-5.1,2.6-2.423,4.145,9.914,5.709,20.233,10.749,30.454,15.878,9.194,4.613,18.326,9.411,27.686,13.672,4.256,1.938,8.481,3.934,12.8,5.729a171.32,171.32,0,0,0,17.533,6.131,193.557,193.557,0,0,0,24.516,5.637c4.055.635,8.124,1.185,12.175,1.847a67.927,67.927,0,0,0,11.107,1.007c3.132-.006,6.52-.151,9.428-1.424a19.694,19.694,0,0,0,7.277-5.384c4.519-5.614-.192-12.77-5.589-15.664a20.318,20.318,0,0,0-3.563-1.488c-2.956-.918-4.221,3.714-1.276,4.629Z"/><path class="c" d="M9.5,142.938c6.107,3.579,12.278,7.076,18.051,11.186a105.958,105.958,0,0,1,11.186,9.327c7.154,6.746,13.94,13.889,20.662,21.062,5.459,5.825,10.842,11.72,16.217,17.622,2.074,2.277,4.083,4.629,6.326,6.742A78.5,78.5,0,0,0,96.485,219.4c5.69,3.307,11.6,6.219,17.4,9.315,2.931,1.564,5.8,3.488,8.9,4.7,2.5.98,4.979,2,7.451,3.048,5.1,2.15,10.161,4.377,15.211,6.633q3,1.339,5.989,2.7c2.742,1.249,5.312,2.846,7.971,4.264,6.455,3.442,13.077,6.556,19.764,9.516,5.279,2.337,10.554,4.742,15.977,6.724,9.582,3.5,19.161,7.011,28.815,10.307,5.057,1.726,10.132,3.412,15.263,4.9A63.776,63.776,0,0,0,253.96,283.6a88.68,88.68,0,0,0,11.306.107c5.859-.467,11.488-3.788,12.482-9.952a12.48,12.48,0,0,0-1.793-9.055c-1.7-2.563-5.858-.162-4.144,2.422a8.168,8.168,0,0,1,.842,7.263c-.04.136-.1.274-.148.405.281-.712-.2.348-.231.4a5.643,5.643,0,0,1-.963,1.222,8.573,8.573,0,0,1-3.539,1.985c-3.465,1.05-7.531.618-11.095.507-4.818-.15-9.826-.309-14.509-1.555-4.748-1.262-9.425-2.85-14.081-4.413-9.875-3.316-19.665-6.882-29.447-10.461a300.911,300.911,0,0,1-32.563-14.357c-5.051-2.563-9.9-5.435-15.065-7.763q-7.143-3.221-14.338-6.329c-5.137-2.214-10.552-4.05-15.426-6.772-5.708-3.189-11.56-6.106-17.316-9.207a99.093,99.093,0,0,1-14.884-9.359,78.081,78.081,0,0,1-8.831-8.631c-4.7-5.13-9.366-10.286-14.1-15.382-6.592-7.1-13.248-14.144-20.157-20.933-2.894-2.844-5.829-5.66-8.923-8.288a123.743,123.743,0,0,0-16.289-11.472c-2.922-1.764-5.88-3.468-8.824-5.194-2.671-1.565-5.089,2.582-2.423,4.145Z"/><path class="a" d="M167.249,210.305a28.248,28.248,0,0,0-21.81,2.451c.38-4.832-2.834-9.527-7.2-11.638s-9.608-1.883-14.141-.169c-3.529,1.335-6.851,3.678-8.462,7.089-2.488,5.267-.379,11.451,1.741,16.876A14.97,14.97,0,0,0,130.7,249.859c7.39,10.53,18.387,15.236,30.664,16.831,7.737,1,19.668-1.3,24.2-7.65,3.463-4.855,5.448-9.153,3.929-14.92-.794-3.015-5.025-8.635-9.715-6.713,4.446-8.323.562-19.576-7.374-24.679A21.944,21.944,0,0,0,167.249,210.305Z"/><path class="d" d="M167.887,207.99a30.859,30.859,0,0,0-23.659,2.694l3.611,2.072a14.282,14.282,0,0,0-4.222-10.673,17.023,17.023,0,0,0-11.528-4.866c-8.135-.361-18.058,4.329-19.673,13.023-.978,5.266.76,10.457,2.65,15.312l.617-2.335a17.361,17.361,0,0,0,15.654,28.956l-2.71-1.1c7.978,11.246,21.423,17.644,35.11,18.218a34.653,34.653,0,0,0,18.293-4.081,19.413,19.413,0,0,0,6.687-6.537,20.343,20.343,0,0,0,3.678-10.187,14.364,14.364,0,0,0-3.4-10.016c-2.382-2.839-6.179-4.755-9.863-3.376l2.71,3.526a20.739,20.739,0,0,0,.25-17.889,23.127,23.127,0,0,0-14.21-12.739c-2.937-.978-4.2,3.656-1.276,4.629a18.3,18.3,0,0,1,11.205,10.22A15.757,15.757,0,0,1,177.7,236.2c-.879,1.692.616,4.31,2.711,3.526,2.119-.794,3.93.5,5.3,2.268a10.781,10.781,0,0,1,1.335,2.343,11.582,11.582,0,0,1,.527,4.525c-.231,2.915-1.748,5.543-3.35,7.914a13.966,13.966,0,0,1-5.177,4.6c-9.456,5.041-21.539,3.455-31.039-.589a35.753,35.753,0,0,1-15.236-12.136,2.548,2.548,0,0,0-2.711-1.1,12.587,12.587,0,0,1-10.984-20.934,2.388,2.388,0,0,0,.617-2.335c-1.32-3.391-2.72-6.971-2.778-10.656a9.844,9.844,0,0,1,3.932-8.208c4.9-3.761,13.014-4.956,18.157-1.04a9.872,9.872,0,0,1,4.034,8.384c-.114,1.894,2.1,2.888,3.611,2.072a25.935,25.935,0,0,1,19.961-2.209C169.566,213.543,170.83,208.911,167.887,207.99Z"/><path class="c" d="M176.237,96.108A313.212,313.212,0,0,1,200.4,119.874c2.673,2.934,5.343,5.872,8.144,8.686q2.352,2.362,4.812,4.612a48.114,48.114,0,0,0,7.113,4.912q17.163,10.8,34.4,21.486,8.121,5.046,16.225,10.12,4.363,2.733,8.753,5.425,2.292,1.4,4.6,2.781a38.294,38.294,0,0,0,5.537,3.183c.25.1,1.16.49.319.1.5.232,1,.446,1.5.68,1.434.678,2.848,1.4,4.257,2.122q5.978,3.085,11.8,6.463c4.109,2.376,8.18,4.839,12.085,7.54,3.019,2.088,5.923,4.093,8.049,7.505,1.463,2.349,2.6,5.322,1.484,8.047a7.484,7.484,0,0,1-5.178,4.214c-5.087,1.374-10.909-.247-15.874-1.657-6.957-1.976-13.441-5.047-20.166-7.651-3.4-1.315-6.828-2.5-10.171-3.96-3.565-1.551-7.072-3.234-10.539-4.993-21.075-10.694-40.53-24.05-59.8-37.658q-4.467-3.155-8.929-6.316a2.421,2.421,0,0,0-3.284.861,2.45,2.45,0,0,0,.861,3.283c10.076,7.133,20.116,14.327,30.381,21.186,9.734,6.5,19.65,12.74,29.929,18.347a229.627,229.627,0,0,0,21.826,10.655c3.455,1.434,7,2.619,10.467,4.028s6.905,2.946,10.41,4.289a69.565,69.565,0,0,0,18.663,4.741c5.711.486,11.909-.85,15.081-6.083,3.558-5.868.384-13.153-4.011-17.606a56.567,56.567,0,0,0-9.561-7.239A232.734,232.734,0,0,0,295.8,178.482c-1.234-.61-2.475-1.209-3.75-1.732a50.99,50.99,0,0,1-6.177-3.59c-5.987-3.6-11.9-7.327-17.819-11.036-11.613-7.275-23.277-14.469-34.892-21.74q-4.27-2.673-8.537-5.354-1.938-1.218-3.875-2.438a23.7,23.7,0,0,1-3.358-2.227c-3.232-2.925-6.318-6-9.292-9.187-6.636-7.109-13.119-14.293-20.216-20.96q-4.065-3.82-8.255-7.5c-2.308-2.039-5.715,1.343-3.394,3.394Z"/><path class="e" d="M340.252,62.83a2.454,2.454,0,0,1,.993,2.512,2.06,2.06,0,0,1-2.026,1.517c-1.493.144-2.994-.127-4.49.045a6.183,6.183,0,0,0-4.564,2.508,6.712,6.712,0,0,0-.938,4.845c.22,1.589,1.129,3.057,1.249,4.631a4.23,4.23,0,0,1-1.553,3.64c-1.139.792-2.693.528-4,.689a6.772,6.772,0,0,0-4.933,2.92,5.04,5.04,0,0,0-.088,5.648,2.475,2.475,0,0,0,3.283.861,2.418,2.418,0,0,0,.861-3.284c-.228-.3-.249-.267,0-.661a1.915,1.915,0,0,1,1.364-.739c1.477-.23,3.057-.059,4.537-.632a8.754,8.754,0,0,0,5.234-9.341c-.215-1.589-1.109-3-1.256-4.594-.11-1.195.285-1.658,1.457-1.753,1.617-.131,3.216.136,4.835-.1a6.681,6.681,0,0,0,4.451-2.536c2.315-3.018,1.653-8.552-2-10.322a2.464,2.464,0,0,0-3.284.861,2.423,2.423,0,0,0,.861,3.284Z"/><path class="e" d="M347.739,37.981c-.5-.241-1.034-.419-1.53-.662a5.67,5.67,0,0,1-1.248-.835,8.645,8.645,0,0,1-1.117-.952,5.479,5.479,0,0,1-1.569-5.446c.563-1.6,2.078-2.74,2.621-4.353.985-2.929-1.751-6.762-.5-9.587,1.083-2.447,2.721-3.047,4.975-3.508,1.795-.367,3.945-.523,4.888-2.094a9.669,9.669,0,0,0,.733-2.591c.656-2.471,2.6-4.421,5.226-4.327a7.423,7.423,0,0,1,3.909.726,9.67,9.67,0,0,0,2.359,1.3c1.78.433,3.4-.988,4.925-2.007,1.911-1.28,4.463-2.275,6.477-1.163C380.6,3.975,381.1,8.3,383.874,9.66c1.529.748,3.4.466,4.939,1.194a5.478,5.478,0,0,1,2.773,4.943,8.736,8.736,0,0,1-.108,1.464,5.713,5.713,0,0,1-.283,1.475,9.69,9.69,0,0,0-.813,2.567c-.077,1.83,1.633,3.144,2.93,4.438,1.628,1.625,2.851,4,2.154,6.193-.937,2.945-4.833,4.216-5.623,7.2-.434,1.645.207,3.427-.207,5.077A5.478,5.478,0,0,1,385.33,47.9c-2.958.63-6.007-1.171-8.759-.4-2.684,1.275-3.077,4.55-5.489,6.137a5.481,5.481,0,0,1-5.648.476c-1.465-.866-2.282-2.574-3.757-3.42-2.681-1.538-6.323.341-9.077-1.061-2.05-1.045-2.881-3.584-2.893-5.885-.01-1.832.257-3.971-1.1-5.2A3.652,3.652,0,0,0,347.739,37.981Z"/><path class="e" d="M348.748,36.254c-1.967-.888-5.687-2.8-4.545-5.636.5-1.243,1.62-2.17,2.211-3.374a7.071,7.071,0,0,0,.609-4.1c-.274-2.2-1.815-5.082-.3-7.1,1.4-1.85,4.61-1.518,6.576-2.315a5.248,5.248,0,0,0,3.126-3.174c.446-1.268.423-2.64,1.287-3.744a3.194,3.194,0,0,1,2.67-1.2,6.027,6.027,0,0,1,3.713,1.1,5.42,5.42,0,0,0,4.588.782,17.623,17.623,0,0,0,4.057-2.333c1.041-.65,2.471-1.432,3.744-1.092,1.007.269,1.585,1.257,2.085,2.1,1.349,2.26,2.5,4.606,5.127,5.581,1.369.507,3.018.271,4.316.944a3.433,3.433,0,0,1,1.555,2.757c.167,1.634-.466,2.892-.932,4.39a5.227,5.227,0,0,0,.566,4.345c1.295,2.092,4.728,3.816,4.455,6.647-.2,2.129-3.012,3.526-4.249,5.043a7.085,7.085,0,0,0-1.681,3.892c-.136,1.387.438,3.122-.2,4.409-1.361,2.743-5.039,1.688-7.327,1.338a7.842,7.842,0,0,0-4.792.342,8.411,8.411,0,0,0-2.894,2.788,13.08,13.08,0,0,1-2.328,3.189,3.576,3.576,0,0,1-3.746.558c-1.35-.772-2.128-2.358-3.451-3.226a8.2,8.2,0,0,0-4.876-1.1c-1.416.049-3.163.448-4.508-.154a3.915,3.915,0,0,1-1.84-3.112c-.24-1.572.076-3.167-.226-4.745a5.292,5.292,0,0,0-2.8-3.794c-2.275-1.2-4.3,2.252-2.018,3.454,1.192.627,1,1.964.985,3.162a12.134,12.134,0,0,0,.68,4.662c1.306,3.318,4.155,4.771,7.628,4.644,1.42-.052,3.221-.474,4.553.191,1.3.647,2.1,2.186,3.257,3.055,2.8,2.1,6.821,1.4,9.3-.874a16.259,16.259,0,0,0,2.484-3.358c.755-1.176,1.395-1.941,2.867-1.877,1.687.074,3.325.624,5.018.708a8.655,8.655,0,0,0,4.809-1.164,7.042,7.042,0,0,0,3.149-3.776c.578-1.757-.068-3.514.274-5.261a5.424,5.424,0,0,1,2.037-2.674,15.332,15.332,0,0,0,2.9-3.105c1.939-3.092.7-6.757-1.553-9.291-.786-.885-2.343-1.812-2.681-3a2.809,2.809,0,0,1,.4-1.756,9.811,9.811,0,0,0,.617-2.545c.407-3.369-.718-7.143-4.116-8.523-1.458-.592-3.2-.369-4.592-1.062-1.049-.521-1.622-1.784-2.171-2.751C381.07,2.452,379.147-.117,375.739,0a10.237,10.237,0,0,0-4.845,1.6c-1.019.617-2.585,2.3-3.876,2.117-.67-.093-1.3-.779-1.881-1.1a7.978,7.978,0,0,0-2.565-.86,9.891,9.891,0,0,0-4.717.224,7.344,7.344,0,0,0-3.592,2.8,8.637,8.637,0,0,0-1.044,2.133c-.264.76-.248,1.661-.58,2.388-.488,1.07-2.286,1.11-3.286,1.3a11.269,11.269,0,0,0-3.917,1.309c-2.869,1.791-3.716,4.969-3.124,8.132a21.136,21.136,0,0,1,.8,4.259c-.032,1.389-1.168,2.387-1.893,3.483a7.284,7.284,0,0,0,1.343,9.281,13.719,13.719,0,0,0,4.168,2.633,2.061,2.061,0,0,0,2.736-.718A2.015,2.015,0,0,0,348.748,36.254Z"/><path class="f" d="M381.526,19.971l-8.259,7.935a1.616,1.616,0,0,0,0,2.263,1.633,1.633,0,0,0,2.263,0l8.259-7.935a1.6,1.6,0,1,0-2.263-2.263Z"/><path class="f" d="M373.977,22.022c2.416,2.87,4.9,5.681,7.226,8.624a1.6,1.6,0,0,0,2.263,0,1.648,1.648,0,0,0,0-2.262c-2.329-2.944-4.811-5.755-7.226-8.625a1.606,1.606,0,0,0-2.263,0,1.643,1.643,0,0,0,0,2.263Z"/><path class="f" d="M361.882,19.971l-8.259,7.935a1.616,1.616,0,0,0,0,2.263,1.633,1.633,0,0,0,2.263,0l8.259-7.935a1.6,1.6,0,1,0-2.263-2.263Z"/><path class="f" d="M354.333,22.022c2.415,2.87,4.9,5.681,7.226,8.624a1.6,1.6,0,0,0,2.263,0,1.648,1.648,0,0,0,0-2.262c-2.329-2.944-4.811-5.755-7.226-8.625a1.606,1.606,0,0,0-2.263,0,1.643,1.643,0,0,0,0,2.263Z"/></svg>