<?xml version="1.0" encoding="iso-8859-1"?>
<!-- Uploaded to: SVG Repo, www.svgrepo.com, Generator: SVG Repo Mixer Tools -->
<svg height="800px" width="800px" version="1.1" id="Layer_1" xmlns="http://www.w3.org/2000/svg" xmlns:xlink="http://www.w3.org/1999/xlink" 
	 viewBox="0 0 512 512" xml:space="preserve">
<g>
	<path style="fill:#FAA85F;" d="M306.193,253.498L198.289,368.593l26.694,110.185c2.804,12.509,15.825,21.585,31.011,21.585
		c15.185,0,28.207-9.076,31.011-21.597l54.353-224.303C336.32,255.453,331.13,256,325.812,256
		C319.04,256,312.489,255.069,306.193,253.498z"/>
	<path style="fill:#FAA85F;" d="M273.856,236.951c-7.017-5.865-13.126-12.788-17.862-20.666
		C241.751,240.023,215.825,256,186.176,256c-5.318,0-10.508-0.547-15.546-1.524l17.827,73.565L273.856,236.951z"/>
</g>
<g>
	<circle style="fill:#FFFFFF;" cx="255.994" cy="81.455" r="69.818"/>
	<circle style="fill:#FFFFFF;" cx="325.812" cy="174.545" r="69.818"/>
	<circle style="fill:#FFFFFF;" cx="186.176" cy="174.545" r="69.818"/>
</g>
<g>
	<path style="fill:#72C6EF;" d="M255.994,132.806c1.152-1.92,2.374-3.805,3.677-5.62c-3.037-0.431-5.969-1.105-8.844-1.99
		C252.689,127.628,254.412,130.164,255.994,132.806z"/>
	<path style="fill:#72C6EF;" d="M218.036,99.584c-5.248-8.727-8.448-18.839-8.448-29.766c0-13.091,4.48-25.041,11.776-34.769
		c-14.127,10.624-23.412,27.369-23.412,46.406c0,4.422,0.593,8.681,1.524,12.823C205.946,95.348,212.172,97.094,218.036,99.584z"/>
	<path style="fill:#72C6EF;" d="M197.812,221.091c-32.128,0-58.182-26.054-58.182-58.182c0-13.091,4.48-25.041,11.776-34.769
		c-14.138,10.624-23.412,27.369-23.412,46.406c0,32.128,26.054,58.182,58.182,58.182c19.037,0,35.782-9.274,46.406-23.412
		C222.854,216.611,210.903,221.091,197.812,221.091z"/>
</g>
<g>
	<path style="fill:#00384E;" d="M157.772,250.787l21.178,87.389l19.025-20.294l-15.034-62.057c1.082,0.058,2.141,0.175,3.235,0.175
		c29.649,0,55.564-15.977,69.818-39.715c4.736,7.878,10.845,14.801,17.862,20.666l15.977-17.047
		c-13.417-10.659-22.202-26.927-22.202-45.359c0-32.081,26.1-58.182,58.182-58.182c17.094,0,32.326,7.54,42.985,19.316
		l16.012-17.082c-12.544-13.184-29.393-22.237-48.326-24.727c0.617-4.049,0.966-8.192,0.966-12.416
		C337.449,36.538,300.911,0,255.994,0S174.54,36.538,174.54,81.455c0,4.224,0.349,8.367,0.977,12.416
		c-39.889,5.248-70.796,39.377-70.796,80.675C104.721,209.455,126.842,239.22,157.772,250.787z M255.994,23.273
		c32.081,0,58.182,26.1,58.182,58.182c0,4.422-0.57,8.692-1.559,12.8c-24.041,3.945-44.532,18.409-56.623,38.551
		c-12.09-20.131-32.57-34.607-56.623-38.551c-0.989-4.108-1.559-8.378-1.559-12.8C197.812,49.373,223.913,23.273,255.994,23.273z
		 M186.176,116.364c32.081,0,58.182,26.1,58.182,58.182s-26.1,58.182-58.182,58.182s-58.182-26.1-58.182-58.182
		S154.095,116.364,186.176,116.364z"/>
	<path style="fill:#00384E;" d="M383.622,170.903c0.081,1.222,0.372,2.397,0.372,3.642c0,32.081-26.1,58.182-58.182,58.182
		c-0.047,0-0.093-0.012-0.14-0.012l-19.479,20.783c6.295,1.571,12.847,2.502,19.619,2.502c1.094,0,2.153-0.116,3.235-0.163
		l-53.411,220.404c-1.583,7.11-10.031,12.486-19.642,12.486c-9.612,0-18.06-5.376-19.7-12.695l-28.497-117.585l-19.025,20.294
		l24.855,102.575c3.98,17.78,21.795,30.685,42.368,30.685c20.573,0,38.388-12.905,42.31-30.487l55.913-230.726
		c30.929-11.567,53.05-41.332,53.05-76.241c0-8.623-1.42-16.896-3.91-24.692L383.622,170.903z"/>
</g>
<g>
	<path style="fill:#72C6EF;" d="M289.879,219.857l11.229-11.974c-13.126-10.671-21.69-26.74-21.69-44.975
		c0-13.091,4.48-25.041,11.776-34.769c-14.138,10.612-23.412,27.357-23.412,46.406C267.77,192.966,276.509,209.199,289.879,219.857z
		"/>
	<path style="fill:#72C6EF;" d="M336.657,220.998l-10.973,11.706c0.093,0,0.175,0.023,0.268,0.023
		c19.037,0,35.782-9.274,46.406-23.412c-9.716,7.296-21.667,11.776-34.769,11.776C337.274,221.091,336.983,220.998,336.657,220.998z
		"/>
</g>
<path style="fill:#00384E;" d="M81.449,453.818c-2.851,0-5.713-1.047-7.959-3.153c-4.689-4.399-4.922-11.764-0.524-16.442
	L422.057,61.859c4.387-4.689,11.753-4.934,16.454-0.524c4.689,4.387,4.922,11.764,0.524,16.454L89.943,450.153
	C87.651,452.585,84.556,453.818,81.449,453.818z"/>
</svg>