<?xml version="1.0" encoding="iso-8859-1"?>
<!-- Uploaded to: SVG Repo, www.svgrepo.com, Generator: SVG Repo Mixer Tools -->
<svg version="1.1" id="Layer_1" xmlns="http://www.w3.org/2000/svg" xmlns:xlink="http://www.w3.org/1999/xlink" 
	 viewBox="0 0 501.551 501.551" xml:space="preserve">
<path style="fill:#F2F2F2;" d="M448.759,234.057c-3.135-36.571-9.404-73.143-18.808-109.714
	c-2.09-10.449-11.494-16.718-21.943-16.718H92.449c-10.449,0-19.853,7.314-21.943,16.718
	c-9.404,36.571-15.673,73.143-18.808,109.714c-4.18,47.02-4.18,94.041,0,141.061c2.09,22.988,5.224,45.976,10.449,70.008
	c6.269,32.392,35.527,56.424,68.963,56.424h240.326c33.437,0,62.694-24.033,68.963-56.424c4.18-22.988,8.359-45.976,10.449-70.008
	C453.983,328.098,453.983,281.078,448.759,234.057z"/>
<rect x="116.481" y="68.963" style="fill:#E2E2E2;" width="267.494" height="38.661"/>
<path style="fill:#FF7058;" d="M389.2,0H111.257C99.763,0,90.359,9.404,90.359,20.898v48.065h319.739V20.898
	C410.098,9.404,400.694,0,389.2,0z"/>
<g>
	<rect x="154.098" y="8.359" style="fill:#F1543F;" width="12.539" height="53.29"/>
	<rect x="213.657" y="8.359" style="fill:#F1543F;" width="11.494" height="53.29"/>
	<rect x="274.261" y="8.359" style="fill:#F1543F;" width="12.539" height="53.29"/>
	<rect x="334.865" y="8.359" style="fill:#F1543F;" width="12.539" height="53.29"/>
</g>
<path style="fill:#40596B;" d="M448.759,234.057H320.237c-15.673-28.212-41.796-45.975-70.008-45.975s-54.335,17.763-70.008,45.975
	H51.698c-4.18,47.02-4.18,94.041,0,141.061H180.22c15.673,28.212,41.796,45.976,70.008,45.976s54.335-17.763,70.008-45.976h128.522
	C453.983,328.098,453.983,281.078,448.759,234.057z"/>
<rect x="116.481" y="68.963" style="fill:#CDD6E0;" width="267.494" height="15.673"/>
<g>
	<path style="fill:#FFFFFF;" d="M139.469,315.559l12.539-1.045c1.045,4.18,2.09,12.539,13.584,12.539
		c10.449,0,12.539-6.269,12.539-8.359c0-4.18-2.09-5.224-16.718-9.404c-7.314-2.09-20.898-4.18-20.898-18.808
		c0-3.135,2.09-17.763,22.988-17.763c19.853,0,24.033,13.584,24.033,19.853l-12.539,1.045c-1.045-3.135-3.135-9.404-11.494-9.404
		c-10.449,0-10.449,4.18-10.449,6.269c0,5.224,7.314,6.269,13.584,8.359c6.269,1.045,24.033,5.225,24.033,20.898
		c0,4.18-1.045,19.853-25.078,19.853C145.739,337.502,140.514,322.873,139.469,315.559z"/>
	<path style="fill:#FFFFFF;" d="M259.632,336.457h-13.584l-5.224-14.629h-25.078l-5.224,14.629h-13.584l25.078-63.739h12.539
		L259.632,336.457z M236.645,311.38l-9.404-24.033l-8.359,24.033H236.645z"/>
	<path style="fill:#FFFFFF;" d="M266.947,336.457v-63.739h12.539v52.245h32.392v10.449h-44.931V336.457z"/>
	<path style="fill:#FFFFFF;" d="M328.596,336.457v-53.29h-18.808v-10.449h51.2v10.449h-18.808v53.29H328.596z"/>
</g>
</svg>